<?xml version="1.0" encoding="utf-8"?>
<!-- Generator: Adobe Illustrator 19.1.0, SVG Export Plug-In . SVG Version: 6.00 Build 0)  -->
<svg version="1.1" id="Layer_1" xmlns="http://www.w3.org/2000/svg" xmlns:xlink="http://www.w3.org/1999/xlink" x="0px" y="0px"
	 viewBox="0 0 595.28 841.89" style="enable-background:new 0 0 595.28 841.89;" xml:space="preserve">
<g>
	<g>
		<path style="fill:#FFFFFF;" d="M286.076,437.267c-0.625-0.101-1.267-0.32-1.933-0.66L286.076,437.267z"/>
	</g>
	<g>
		<path style="fill:#FFFFFF;" d="M495.578,539.915c-4.784,4.575-15.451,1.179-23.825-7.579c0,0-55.053-65.272-62.956-65.906
			c-7.908-0.628-11.886,6.965-17.236,6.791l-0.389-0.13l-0.007-0.005l-105.09-35.818l-1.933-0.66
			c-13.887-7.13-64.592-105.651-64.592-105.651c-6.884-11.316-5.282-24.856,3.58-30.248c8.864-5.394,21.626-0.598,28.512,10.716
			l47.086,77.365l0.126-0.41l108.492,33.101c5.779,1.418,15.676,25.132,18.784,28.388c3.105,3.253,62.963,65.902,62.963,65.902
			C497.464,524.534,500.369,535.34,495.578,539.915z"/>
	</g>
	<g>
		<path style="fill:#FFFFFF;" d="M391.562,473.22c-0.144-0.004-0.274-0.051-0.389-0.13L391.562,473.22z"/>
	</g>
	<g>
		<path style="fill:#FFFFFF;" d="M435.512,444.43c-11.488-9.701-12.937-26.878-3.241-38.368
			c9.701-11.489,26.876-12.941,38.366-3.242c6.344,5.357,9.629,12.994,9.663,20.692l11.713,4.71l-27.875,33.018l-6.607-10.758
			C449.939,451.742,441.855,449.784,435.512,444.43z"/>
	</g>
	<g>
		<path style="fill:#FFFFFF;" d="M381.03,391.54l-70.135-20.412c-2.457-0.716-3.868-3.284-3.15-5.738l6.11-20.993
			c0.713-2.455,3.281-3.866,5.734-3.151l70.137,20.411L381.03,391.54z"/>
	</g>
	<g>
		<path style="fill:#FFFFFF;" d="M414.732,385.275c-2.383,8.182-10.948,12.886-19.13,10.505l-9.447-2.749l8.623-29.634l9.447,2.749
			C412.407,368.528,417.11,377.092,414.732,385.275z"/>
	</g>
	<g>
		<polygon style="fill:#FFFFFF;" points="204.384,232.975 223.147,282.386 204.705,300.159 142.917,235.456 		"/>
	</g>
</g>
<g>
	<line style="fill:#FFFFFF;" x1="106.383" y1="584.843" x2="516.836" y2="584.843"/>
	<g>
		
			<line style="fill:none;stroke:#FFFFFF;stroke-width:13;stroke-linecap:round;stroke-miterlimit:10;" x1="106.383" y1="584.843" x2="516.836" y2="584.843"/>
		<g>
			<path style="fill:#FFFFFF;" d="M544.296,584.843c-12.921,4.794-28.953,12.975-38.89,21.639l7.827-21.639l-7.827-21.635
				C515.343,571.873,531.374,580.053,544.296,584.843z"/>
		</g>
	</g>
</g>
<g>
	<line x1="106.383" y1="584.843" x2="106.383" y2="208.311"/>
	<g>
		
			<line style="fill:none;stroke:#FFFFFF;stroke-width:13;stroke-linecap:round;stroke-miterlimit:10;" x1="106.383" y1="584.843" x2="106.383" y2="208.311"/>
		<g>
			<path style="fill:#FFFFFF;" d="M106.383,180.066c4.931,13.29,13.345,29.78,22.257,40.002l-22.257-8.051l-22.253,8.051
				C93.042,209.846,101.456,193.356,106.383,180.066z"/>
		</g>
	</g>
</g>
</svg>
